<svg width="130" height="28" viewBox="0 0 130 28" fill="none" xmlns="http://www.w3.org/2000/svg">
<g clip-path="url(#clip0_115_883)">
<path d="M33.8142 26.7609L26.4556 8.17393H32.003L36.6459 21.4285L41.3292 8.17393H46.8362L39.5177 26.7609H33.8139H33.8142Z" fill="#010101"/>
<path d="M94.3111 8.176H98.7767L98.718 12.2533H94.3109V20.5264C94.3109 21.5476 94.4739 21.7892 94.9447 22.1686C95.4173 22.5479 96.2266 22.597 97.2223 22.597C97.6677 22.597 98.1248 22.5482 98.5919 22.451C98.5598 22.5185 98.529 22.5867 98.4998 22.656C98.3978 22.9043 98.3207 23.1578 98.2669 23.4221C98.2161 23.6865 98.1897 23.9509 98.1897 24.2204C98.1897 24.4899 98.2133 24.7543 98.2669 25.0186C98.3176 25.2801 98.3952 25.5365 98.4998 25.7848C98.6036 26.0332 98.7296 26.2681 98.8792 26.4924C98.9131 26.5425 98.9478 26.5919 98.983 26.6402C98.5523 26.782 98.0958 26.8947 97.6141 26.9782C96.9316 27.0952 96.1717 27.1555 95.3322 27.1555C93.1806 27.1555 91.5886 26.595 90.5526 25.4698C89.5166 24.3449 88.9984 22.8159 88.9984 20.8812V12.253H85.9561V8.17574H88.9984V2.69634L94.3111 2.6077V8.176Z" fill="#010101"/>
<path d="M6.69219 3.67599C6.69219 3.86463 6.6733 4.05353 6.63732 4.24036C6.59953 4.42719 6.54467 4.60653 6.47297 4.782C6.39921 4.95746 6.31044 5.12362 6.20458 5.28229C6.09873 5.44095 5.97967 5.58618 5.84354 5.7203C5.70921 5.85415 5.56194 5.97509 5.40484 6.07897C5.24593 6.18467 5.07977 6.2733 4.90378 6.34514C4.72778 6.41698 4.54635 6.47176 4.35923 6.50949C4.17211 6.54722 3.98498 6.56428 3.79398 6.56428C3.60297 6.56428 3.41585 6.54541 3.22873 6.50949C3.0416 6.47176 2.86017 6.41698 2.68418 6.34514C2.50844 6.2733 2.34203 6.18286 2.18311 6.07897C2.0242 5.97328 1.87875 5.85441 1.74442 5.7203C1.6101 5.58618 1.48923 5.44095 1.38337 5.28229C1.27752 5.12362 1.18875 4.95772 1.11498 4.782C1.04122 4.60653 0.986352 4.42513 0.950377 4.24036C0.91259 4.05353 0.895508 3.86669 0.895508 3.67599C0.895508 3.48528 0.914401 3.29844 0.950377 3.11161C0.988164 2.92478 1.04303 2.74544 1.11498 2.56998C1.18875 2.39451 1.27752 2.22835 1.38337 2.06969C1.48923 1.91102 1.61036 1.76579 1.74442 1.63168C1.87875 1.49756 2.02601 1.37688 2.18311 1.273C2.33996 1.16911 2.50818 1.07867 2.68418 1.00683C2.86017 0.934992 3.0416 0.880466 3.22873 0.842738C3.41585 0.80501 3.60297 0.787954 3.79398 0.787954C3.98498 0.787954 4.17211 0.806819 4.35923 0.842738C4.54635 0.880466 4.72778 0.93525 4.90378 1.00683C5.07951 1.07867 5.24593 1.16911 5.40484 1.273C5.56376 1.37869 5.70921 1.49756 5.84354 1.63168C5.97786 1.76579 6.09873 1.91102 6.20458 2.06969C6.31044 2.22835 6.39921 2.39425 6.47297 2.56998C6.54674 2.74544 6.60161 2.92684 6.63732 3.11161C6.67511 3.29844 6.69219 3.48528 6.69219 3.67599Z" fill="#010101"/>
<path d="M6.47924 8.14758H1.10986V26.759H6.47924V8.14758Z" fill="#010101"/>
<path d="M129.569 3.69304C129.569 3.88168 129.55 4.07058 129.515 4.25742C129.477 4.44425 129.422 4.62359 129.35 4.79905C129.276 4.97451 129.188 5.14067 129.082 5.29934C128.976 5.45801 128.857 5.60323 128.721 5.73735C128.586 5.87147 128.439 5.99215 128.282 6.09603C128.123 6.20172 127.956 6.29036 127.781 6.3622C127.605 6.43404 127.423 6.48856 127.236 6.52629C127.049 6.56402 126.862 6.58107 126.671 6.58107C126.48 6.58107 126.293 6.56221 126.106 6.52629C125.919 6.48856 125.737 6.43378 125.561 6.3622C125.385 6.29036 125.219 6.19991 125.06 6.09603C124.902 5.99034 124.756 5.87147 124.622 5.73735C124.487 5.60323 124.366 5.45801 124.26 5.29934C124.155 5.14067 124.066 4.97477 123.992 4.79905C123.918 4.62359 123.863 4.44218 123.827 4.25742C123.79 4.07058 123.772 3.88375 123.772 3.69304C123.772 3.50233 123.792 3.3155 123.827 3.12867C123.865 2.94183 123.92 2.76249 123.992 2.58703C124.066 2.41157 124.155 2.24541 124.26 2.08674C124.366 1.92808 124.487 1.78285 124.622 1.64873C124.756 1.51461 124.903 1.39393 125.06 1.29005C125.217 1.18617 125.385 1.09573 125.561 1.02389C125.737 0.952047 125.919 0.897522 126.106 0.859794C126.293 0.822065 126.48 0.80501 126.671 0.80501C126.862 0.80501 127.049 0.823874 127.236 0.859794C127.423 0.897522 127.605 0.952306 127.781 1.02389C127.956 1.09573 128.123 1.18617 128.282 1.29005C128.441 1.39574 128.586 1.51461 128.721 1.64873C128.855 1.78285 128.976 1.92808 129.082 2.08674C129.188 2.24541 129.276 2.41131 129.35 2.58703C129.424 2.76249 129.479 2.9439 129.515 3.12867C129.552 3.3155 129.569 3.50233 129.569 3.69304Z" fill="#010101"/>
<path d="M129.544 8.16489H124.175V26.7764H129.544V8.16489Z" fill="#010101"/>
<path d="M52.2811 22.3213C53.0656 23.0593 54.1924 23.4273 55.6633 23.4273C56.7167 23.4273 57.6241 23.1725 58.3839 22.6609C59.1438 22.1495 59.6089 21.6076 59.7813 21.0375H64.3755C63.6397 23.2498 62.5131 24.8333 60.9928 25.7848C59.473 26.736 57.6355 27.2118 55.48 27.2118C53.9846 27.2118 52.6364 26.9795 51.4363 26.5154C50.2354 26.051 49.2185 25.3902 48.3846 24.5354C47.5507 23.6785 46.9081 22.6554 46.4541 21.4662C46.0007 20.277 45.7734 18.9689 45.7734 17.5401C45.7734 16.1114 46.0064 14.8749 46.4715 13.6856C46.9366 12.4964 47.5983 11.4677 48.4563 10.5994C49.3151 9.73114 50.3374 9.04789 51.5246 8.5476C52.7143 8.04731 54.0302 7.7982 55.4764 7.7982C57.093 7.7982 58.5033 8.1021 59.7036 8.70808C60.9045 9.31406 61.8912 10.1294 62.6627 11.1524C63.4342 12.1755 63.9914 13.342 64.3357 14.65C64.6778 15.9581 64.8008 17.3267 64.7027 18.7536H50.9937C51.0678 20.3959 51.4948 21.5851 52.2798 22.3231L52.2816 22.3213H52.2811ZM58.1795 12.6156C57.5555 11.9494 56.6049 11.617 55.3304 11.617C54.4971 11.617 53.8047 11.7548 53.2547 12.0266C52.7024 12.3003 52.2619 12.6401 51.9309 13.044C51.6004 13.4497 51.3675 13.8764 51.2334 14.3293C51.0993 14.7823 51.0178 15.1862 50.9956 15.5431H59.4857C59.2398 14.2578 58.805 13.2838 58.181 12.6174L58.1792 12.6156H58.1795Z" fill="#010101"/>
<path d="M113.779 7.79846C114.73 7.79846 115.692 7.86642 116.666 7.99847C117.64 8.13259 118.53 8.39488 119.333 8.78379C120.137 9.1727 120.795 9.71434 121.308 10.4071C121.82 11.1 122.075 12.0191 122.075 13.1631C122.075 13.1631 122.04 26.1538 122.04 26.7593H117.091C117.105 26.4314 117.119 25.3848 117.102 25.083C116.631 25.6135 114.513 27.1262 110.742 27.1262C107.968 27.1262 106.072 25.9507 106.023 25.9086C106.042 25.8675 106.059 25.8264 106.077 25.7846C106.178 25.5362 106.259 25.2827 106.309 25.0184C106.361 24.754 106.387 24.4871 106.387 24.2201C106.387 23.9532 106.363 23.6862 106.309 23.4219C106.259 23.1604 106.182 22.904 106.077 22.6557C105.973 22.4074 105.847 22.1725 105.697 21.9482C105.548 21.7239 105.377 21.5184 105.186 21.3287C104.997 21.1391 104.791 20.9711 104.566 20.8215C104.504 20.7812 104.442 20.7421 104.378 20.7047C104.464 20.0961 104.631 19.5666 104.876 19.1159C105.658 17.7887 107.255 16.3486 110.706 15.7258C111.485 15.6049 112.253 15.5067 113.009 15.4333C113.763 15.3596 116.655 15.3126 116.655 13.3727C116.655 11.4328 114.502 11.2118 114.097 11.1669C112.723 11.0144 111.636 11.3806 110.861 12.0297C110.311 12.5615 110.111 13.0024 110.015 14.0236L104.897 14.1081C104.971 12.8941 105.275 11.8855 105.81 11.0824C106.345 10.2803 107.027 9.63475 107.857 9.14764C108.685 8.66053 109.617 8.31529 110.653 8.10752C111.689 7.90183 112.731 7.79794 113.779 7.79794L113.779 7.79846ZM116.883 17.8743C116.109 18.3536 114.812 18.619 113.815 18.7301C112.783 18.8449 111.162 18.9811 110.233 19.4457C109.413 19.8558 108.988 20.4403 108.988 21.1807C108.988 22.5366 110.596 23.1604 112.124 23.1604C113.17 23.1604 114.974 22.5397 115.736 21.8626C116.422 21.2543 116.825 20.5791 116.896 19.7098C116.935 19.2278 116.908 17.9916 116.883 17.8743ZM104.897 13.8461L104.895 13.8422H104.897C104.897 13.8422 104.897 13.8448 104.897 13.8461H104.897Z" fill="#010101"/>
<path d="M105.187 24.2201C105.187 24.4088 105.168 24.5977 105.132 24.7845C105.096 24.9713 105.04 25.1507 104.968 25.3261C104.894 25.5016 104.805 25.6678 104.699 25.8264C104.594 25.9848 104.472 26.1303 104.338 26.2642C104.204 26.3983 104.056 26.519 103.899 26.6229C103.741 26.7286 103.574 26.8172 103.398 26.889C103.223 26.9609 103.041 27.0156 102.854 27.0534C102.667 27.0911 102.48 27.1082 102.289 27.1082C102.098 27.1082 101.91 27.0893 101.723 27.0534C101.536 27.0156 101.355 26.9609 101.179 26.889C101.003 26.8172 100.836 26.7267 100.677 26.6229C100.519 26.5172 100.374 26.3983 100.239 26.2642C100.105 26.1303 99.9836 25.9848 99.878 25.8264C99.7716 25.6678 99.6834 25.5019 99.6094 25.3261C99.5358 25.1507 99.481 24.9693 99.445 24.7845C99.4072 24.5977 99.3901 24.4108 99.3901 24.2201C99.3901 24.0294 99.4093 23.8426 99.445 23.6558C99.4828 23.4689 99.5377 23.2896 99.6094 23.1141C99.6834 22.9387 99.7719 22.7725 99.878 22.6138C99.9836 22.4552 100.105 22.3099 100.239 22.1758C100.373 22.0417 100.52 21.921 100.677 21.8171C100.836 21.7115 101.003 21.6228 101.179 21.551C101.355 21.4791 101.536 21.4246 101.723 21.3869C101.91 21.3492 102.098 21.3321 102.289 21.3321C102.48 21.3321 102.667 21.351 102.854 21.3869C103.041 21.4246 103.223 21.4794 103.398 21.551C103.574 21.6228 103.74 21.7133 103.899 21.8171C104.059 21.9228 104.204 22.0417 104.338 22.1758C104.472 22.3099 104.594 22.4552 104.699 22.6138C104.805 22.7722 104.894 22.9384 104.968 23.1141C105.041 23.2896 105.096 23.471 105.132 23.6558C105.17 23.8426 105.187 24.0294 105.187 24.2201Z" fill="#010101"/>
<path d="M8.57701 26.7609V8.176H13.4963L13.5113 10.1823C14.2823 9.41897 16.8896 7.47596 20.2053 7.82818C22.8432 8.22278 24.2855 9.08975 25.4888 10.6459C26.774 12.3114 26.9837 14.4436 26.9837 16.8484V26.765H22.0351V17.5086C22.0351 16.5083 21.752 12.7471 17.7794 12.7471C15.3147 12.7471 13.6495 14.1461 13.6495 17.5735V26.765H8.5752L8.57701 26.7611V26.7609Z" fill="#010101"/>
<path d="M66.5458 26.7609V8.176H71.4651L71.4801 10.1823C72.2511 9.41897 74.8584 7.47596 78.1741 7.82818C80.8119 8.22278 82.2543 9.08975 83.4575 10.6459C84.7428 12.3114 84.9524 14.4436 84.9524 16.8484V26.765H80.0039V17.5086C80.0039 16.5083 79.7207 12.7471 75.7482 12.7471C73.2835 12.7471 71.6183 14.1461 71.6183 17.5735V26.765H66.5439L66.5458 26.7611V26.7609Z" fill="#010101"/>
</g>
<defs>
<clipPath id="clip0_115_883">
<rect width="128.674" height="26.4241" fill="white" transform="translate(0.895508 0.787954)"/>
</clipPath>
</defs>
</svg>
