<svg width="163" height="24" viewBox="0 0 163 24" fill="none" xmlns="http://www.w3.org/2000/svg">
<path d="M61.2854 7.23956L59.7269 17.2936H59.2549L56.8087 7.23956H52.9195L50.4476 17.2936H49.9756L48.2824 7.23956H44.9819C44.9819 7.23956 46.8432 15.8018 47.2062 17.4232C47.5692 19.0445 48.7609 19.8244 50.1975 19.8244C51.7086 19.8244 52.8181 18.9316 53.1773 17.2295C53.5634 15.4016 54.578 10.5529 54.578 10.5529H55.0501C55.0501 10.5529 56.1083 15.4016 56.4957 17.2384C56.8523 18.9355 57.9337 19.8244 59.4973 19.8244C61.061 19.8244 62.218 18.9047 62.5284 17.3924C62.8375 15.8813 64.5872 7.23828 64.5872 7.23828H61.2867L61.2854 7.23956Z" fill="black"/>
<path d="M71.3891 6.99805C67.2138 6.99805 65.418 10.2857 65.418 13.3758C65.418 16.4659 66.8315 19.8253 71.3686 19.8253C75.9056 19.8253 77.2999 16.4569 77.2999 13.3758C77.2999 10.2947 75.5631 6.99805 71.3891 6.99805ZM71.4468 17.2945C69.4432 17.2945 68.2759 16.2478 68.2759 13.2539C68.2759 10.26 69.642 9.52887 71.4917 9.52887C73.3414 9.52887 74.4689 10.6269 74.4689 13.2539C74.4689 15.881 73.4517 17.2945 71.4481 17.2945" fill="black"/>
<path d="M82.662 9.02811H82.1643V7.24512H79.2319V19.5811H82.1643V13.7024C82.1643 11.2485 82.8236 9.89395 85.2774 9.89395H86.2626V7.24512H85.5622C83.81 7.24512 83.1301 8.2418 82.6632 9.02811" fill="black"/>
<path d="M114.167 6.99805C112.09 6.99805 111.296 8.35004 110.979 8.98884H110.482C110.18 8.33337 109.763 7.83823 109.228 7.50216C108.693 7.16608 107.994 6.99805 107.127 6.99805C105.361 6.99805 104.442 8.34107 104.176 8.96447H103.678V7.24433H100.835L100.86 19.5803H103.768V12.5266C103.768 10.6141 104.693 9.62764 106.074 9.62764C107.456 9.62764 108.075 10.4909 108.075 11.7903V19.5803H111.009V12.5266C111.009 10.8911 111.607 9.62764 113.289 9.62764C114.972 9.62764 115.316 10.8924 115.316 11.9135V19.5803H118.224V11.6916C118.224 10.1843 117.885 9.02604 117.209 8.21407C116.533 7.40339 115.344 6.99805 114.168 6.99805" fill="black"/>
<path d="M138.78 15.072V9.77308H141.891V7.24225H137.69V6.83434C137.69 6.83434 139.319 5.65038 139.319 3.21191H136.411C136.411 5.48619 135.07 7.24225 133.616 7.24225V9.77308H135.873V15.4158C135.873 18.4738 137.412 19.5795 140.333 19.5795H141.932V17.0487H140.814C139.532 17.0487 138.78 16.7216 138.78 15.0733" fill="black"/>
<path d="M155 13.3758C155 10.2947 153.263 6.99805 149.089 6.99805C144.915 6.99805 143.118 10.2857 143.118 13.3758C143.118 16.4659 144.532 19.8253 149.069 19.8253C152.399 19.8253 154.034 18.0116 154.669 15.8284H151.668C151.18 16.7891 150.34 17.2945 149.147 17.2945C147.363 17.2945 146.243 16.4633 146.018 14.1672H154.968C154.989 13.9017 155 13.6387 155 13.3758ZM146.048 12.1649C146.352 10.0779 147.591 9.52887 149.191 9.52887C150.79 9.52887 151.805 10.3229 152.088 12.1649H146.049H146.048Z" fill="black"/>
<path d="M129.321 8.80285H128.836V8.799C128.836 8.799 127.716 6.99805 125.487 6.99805C121.4 6.99805 120.144 10.2857 120.144 13.3758C120.144 16.4659 120.989 19.8253 125.526 19.8253C127.74 19.8253 128.717 18.1976 128.824 18.0064H129.321L129.521 19.5791H132.02V7.23022H129.321V8.80285ZM126.173 17.2945C124.169 17.2945 123.002 16.2478 123.002 13.2539C123.002 10.26 124.368 9.52887 126.218 9.52887C128.067 9.52887 129.194 10.6269 129.194 13.2539C129.194 15.881 128.176 17.2945 126.173 17.2945Z" fill="black"/>
<path d="M99.3526 7.26129H95.7174L92.694 11.6008C92.4836 11.9022 92.1398 12.0818 91.773 12.0818C91.1534 12.0818 90.6506 11.579 90.6506 10.9594V3.23096H87.7183V19.5986H90.6506V14.5626H92.2283L96.3921 19.5986H99.6502L94.527 13.4825L99.3513 7.26129H99.3526Z" fill="black"/>
<path d="M13.3669 11.9997L15.7695 21.5124C16.4019 24.0188 19.9692 24.0022 20.5784 21.4893L22.8784 11.9997H24.0995L26.5021 21.5124C27.1358 24.0188 30.703 24.0022 31.3123 21.4893L33.6123 11.9997H38.9779L36.5767 2.48694C35.943 -0.0195127 32.3757 -0.002837 31.7664 2.51003L29.4665 11.9997H28.244L25.8415 2.48694C25.2078 -0.0195127 21.6405 -0.002837 21.0313 2.51003L18.7313 11.9997H17.5102L15.1089 2.48822C14.4752 -0.0182299 10.9092 -0.00155425 10.2999 2.51131L8 11.9997H13.3669Z" fill="#3032EC"/>
</svg>
